<svg xmlns="http://www.w3.org/2000/svg" width="517" height="94" fill="none">
  <path fill="#00725F" fill-rule="evenodd"
    d="M126.88 72.72V52.4h21.24c25.52 0 25.52-38.44 0-38.44h-25.76v58.76h4.52Zm0-24.44V18.16h21.24c19.56 0 19.56 30.12 0 30.12h-21.24Zm167.28 24.4h5.96L279.36 50.2c12.84 0 19.12-8.4 19.04-17.96-.08-9.12-6.52-18.28-19.28-18.28h-25.84v58.72h4.52V50.44h16.04l20.32 22.24Zm-15.52-26.52H257.8v-28h21.32c9.76 0 14.44 7.12 14.36 14-.08 8.2-4.6 14-14.84 14Z"
    clip-rule="evenodd" />
  <path fill="#00725F"
    d="M328.76 18.08h-21.24v-4.04h47v4.04h-21.24v54.64h-4.52V18.08Zm39.8 54.6V13.96H373v58.72h-4.44Z" />
  <path fill="#00725F" fill-rule="evenodd"
    d="m505.56 58.24 6.48 14.44h4.88l-26.36-58.72h-4.96l-26.36 58.72h4.88l6.36-14.44h35.08Zm-17.52-39.92 15.76 35.76h-31.52l15.76-35.76Z"
    clip-rule="evenodd" />
  <path fill="#FFD17C" fill-rule="evenodd"
    d="M227.92 23v.04c.2 1.4.36 2.88.44 4.32 0 15.04-12.16 27.2-27.2 27.2s-27.2-12.16-27.2-27.2S186.12.16 201.16.16c10.68 0 19.92 6.16 24.36 15.12.06.14.12.27.18.4s.12.26.18.4l.12.24c.061.214.146.405.236.608l.084.192c0 .047.014.08.025.107.008.02.015.036.015.053.24.6.44 1.16.64 1.76v.04c.04.12.08.25.12.38.04.13.08.26.12.38 0 .12.04.24.08.36.035.121.062.235.088.344.034.143.067.28.112.416.02.06.03.12.04.18.01.06.02.12.04.18.12.56.24 1.12.32 1.68Zm-48.88 4.4c0 12.16 9.88 22.04 22.04 22.04 12.16 0 22-9.88 22.04-22.04 0-12.16-9.88-22.04-22.04-22.04-12.16 0-22.04 9.88-22.04 22.04Z"
    clip-rule="evenodd" />
  <path fill="url(#a)"
    d="M244.04 42.12c0-.2-.04-.36-.04-.56 0-.28-.04-.56-.04-.8 0-.2-.04-.44-.08-.64-.04-.24-.04-.48-.08-.76-.04-.24-.08-.44-.12-.68l-.12-.72c-.04-.24-.08-.44-.12-.68-.04-.24-.12-.48-.16-.72-.04-.24-.12-.44-.16-.68-.08-.24-.12-.48-.2-.72-.08-.2-.12-.44-.2-.64-.08-.24-.16-.52-.24-.76-.08-.2-.12-.4-.2-.6-.32-.92-.72-1.84-1.16-2.76-3.24-6.84-8.76-12.16-15.68-15.16 1.2 2.4 2.04 5 2.48 7.72.16.92.28 1.84.32 2.76a23.28 23.28 0 0 1 5.96 7.68l.12.24c1.48 3.12 2.2 6.44 2.2 9.76 0 1.12-.08 2.2-.24 3.32l-.24 1.32c-.12.6-.28 1.16-.44 1.72-.12.44-.28.88-.44 1.32l-.24.6c-.48 1.24-1.08 2.44-1.8 3.52-.4.6-.8 1.2-1.24 1.76-1.4 1.84-3.08 3.44-4.96 4.76-.84.56-1.68 1.12-2.6 1.56-.92.48-1.84.88-2.8 1.24-.96.36-1.96.64-2.96.84-.52.12-1.04.2-1.56.28-1.12.16-2.28.24-3.44.24-2.8 0-5.6-.48-8.24-1.48-2.4-.88-4.6-2.12-6.56-3.68-.44-.32-.84-.68-1.24-1.04-1.12-1-2.12-2.16-3.04-3.36-.76-1-1.44-2.12-2-3.24-.12-.24-.24-.44-.36-.68v-.04c-.12-.24-.24-.52-.36-.76-.52-1.24-.96-2.52-1.28-3.84-.12-.44-.2-.88-.24-1.32 0-.12-.04-.2-.08-.32-.6-3.76-.24-7.64 1.08-11.24.16-.4.32-.8.48-1.16.08-.16.16-.36.24-.52.08-.16.16-.32.24-.44.24-.48.48-.92.76-1.4 3.44-5.88 9.44-10 16.44-11.04 1.12-.16 2.28-.24 3.44-.24 2.8 0 5.6.48 8.24 1.48.48.16.92.36 1.4.56-.84-3.44-2.44-6.56-4.68-9.16-1.64-.28-3.28-.4-4.96-.4-1.52 0-3.04.12-4.56.32-5.8.88-11.08 3.32-15.32 6.96-.12.12-.28.24-.4.36-.28.24-.56.48-.8.72l-.6.6c-.24.24-.52.52-.76.8-.2.2-.4.44-.6.64-.24.28-.48.52-.68.8-.2.24-.36.48-.56.72-.2.28-.44.56-.64.84-.2.28-.36.56-.56.8-.16.28-.36.52-.52.8-.2.32-.36.64-.56.96-.16.24-.28.52-.44.76-.2.36-.36.76-.56 1.16-.12.2-.2.44-.32.64-.28.6-.52 1.24-.76 1.84-.24.6-.44 1.2-.6 1.84-.48 1.68-.84 3.4-1.04 5.12-.04.16-.04.36-.08.52-.04.44-.08.92-.08 1.36-.04.44-.04.92-.04 1.36v.04c0 .92.04 1.84.12 2.72.08.72.16 1.4.28 2.08.36 2.2.96 4.32 1.76 6.36.8 2 1.8 3.92 3 5.72.4.6.84 1.2 1.28 1.76.44.56.92 1.12 1.4 1.68.72.8 1.48 1.56 2.28 2.32a27.494 27.494 0 0 0 3.4 2.68c.32.2.6.4.92.6.6.4 1.24.76 1.88 1.12.32.16.64.36 1 .52 1 .48 2 .92 3.08 1.32 1 .36 2.04.68 3.08.96.64.16 1.28.32 1.92.44l.6.12c.76.12 1.52.24 2.32.32.96.08 1.96.16 2.92.16 1.16 0 2.28-.08 3.44-.2.36-.04.76-.08 1.12-.16 1.4-.2 2.72-.52 4.04-.88a30.724 30.724 0 0 0 15-9.8c.44-.52.84-1.04 1.24-1.6.8-1.08 1.52-2.24 2.12-3.44.6-1.2 1.2-2.44 1.68-3.72.16-.44.32-.88.44-1.36.04-.16.08-.32.12-.44.08-.32.16-.6.28-.92.04-.16.08-.36.12-.52.08-.28.12-.56.2-.84.04-.2.08-.4.12-.56.04-.28.12-.56.16-.8.04-.2.08-.4.08-.6.04-.28.08-.56.12-.8.04-.2.04-.4.08-.6.04-.28.04-.56.08-.84 0-.2.04-.36.04-.56 0-.36.04-.68.04-1.04v-.36c-.08-.32-.08-.8-.08-1.24Z" />
  <path fill="url(#b)"
    d="M230.04 19.36a28.756 28.756 0 0 1 10.12 21.96c0 15.96-12.92 28.88-28.88 28.88-5.8 0-11.24-1.72-15.76-4.68 5.04 4.32 11.6 6.96 18.8 6.96 15.96 0 28.88-12.92 28.88-28.88-.04-10.16-5.28-19.08-13.16-24.24Z" />
  <path fill="#00725F"
    d="m442.56 20.48-22.48 34.4h-1.52l-22.64-34.4v52.2h-4.52V13.96h5.36l22.48 34.24 22.24-34.24H447v58.72h-4.44v-52.2Z" />
  <path fill="#009E7E" fill-rule="evenodd"
    d="M0 14.121h5.444L28.242 48.83l22.543-34.708h5.614V73.67h-4.508V20.757L29.093 55.635h-1.531L4.594 20.757V73.67H0V14.121Z"
    clip-rule="evenodd" />
  <mask id="c" width="41" height="63" x="70" y="31" maskUnits="userSpaceOnUse" style="mask-type:alpha">
    <path fill="#fff" fill-rule="evenodd" d="M70.95 31.645h39.132V94H70.951V31.645Z" clip-rule="evenodd" />
  </mask>
  <g mask="url(#c)">
    <path fill="#009E7E" fill-rule="evenodd"
      d="M87.794 73.158 70.95 31.645h4.508l9.783 24.84 4.934 12.165 4.849-12.25 10.548-24.755h4.509L83.371 94h-4.424l8.847-20.842Z"
      clip-rule="evenodd" />
  </g>
  <defs>
    <linearGradient id="a" x1="256.908" x2="218.083" y1="47.172" y2="-.507" gradientUnits="userSpaceOnUse">
      <stop offset=".001" stop-color="#009F7F" />
      <stop offset=".467" stop-color="#007D66" />
      <stop offset=".975" stop-color="#005447" />
    </linearGradient>
    <linearGradient id="b" x1="198.613" x2="236.003" y1="60.886" y2="71.851" gradientUnits="userSpaceOnUse">
      <stop stop-color="#009F7F" />
      <stop offset=".206" stop-color="#06A081" />
      <stop offset=".479" stop-color="#17A388" />
      <stop offset=".789" stop-color="#32A892" />
      <stop offset="1" stop-color="#49AC9B" />
    </linearGradient>
  </defs>
</svg>