<svg width="517" height="94" viewBox="0 0 517 94" fill="none" xmlns="http://www.w3.org/2000/svg">
  <path fill-rule="evenodd" clip-rule="evenodd"
    d="M126.88 72.72V52.4H148.12C173.64 52.4 173.64 13.96 148.12 13.96H122.36V72.72H126.88ZM126.88 48.28V18.16H148.12C167.68 18.16 167.68 48.28 148.12 48.28H126.88Z"
    fill="#00725F" />
  <path fill-rule="evenodd" clip-rule="evenodd"
    d="M294.16 72.68H300.12L279.36 50.2C292.2 50.2 298.48 41.8 298.4 32.24C298.32 23.12 291.88 13.96 279.12 13.96H253.28V72.68H257.8V50.44H273.84L294.16 72.68ZM278.64 46.16H257.84H257.8V18.16H279.12C288.88 18.16 293.56 25.28 293.48 32.16C293.4 40.36 288.88 46.16 278.64 46.16Z"
    fill="#00725F" />
  <path d="M328.76 18.08H307.52V14.04H354.52V18.08H333.28V72.72H328.76V18.08Z" fill="#00725F" />
  <path d="M368.56 72.68V13.96H373V72.68H368.56V72.68Z" fill="#00725F" />
  <path fill-rule="evenodd" clip-rule="evenodd"
    d="M505.56 58.24L512.04 72.68H516.92L490.56 13.96H485.6L459.24 72.68H464.12L470.48 58.24H505.56ZM488.04 18.32L503.8 54.08H472.28L488.04 18.32Z"
    fill="#00725F" />
  <path fill-rule="evenodd" clip-rule="evenodd"
    d="M227.92 23V23.04C228.12 24.44 228.28 25.92 228.36 27.36C228.36 42.4 216.2 54.56 201.16 54.56C186.12 54.56 173.96 42.4 173.96 27.36C173.96 12.32 186.12 0.160004 201.16 0.160004C211.84 0.160004 221.08 6.32 225.52 15.28C225.58 15.42 225.64 15.55 225.7 15.68C225.76 15.81 225.82 15.94 225.88 16.08L226 16.32C226.061 16.5342 226.146 16.725 226.236 16.9282C226.264 16.9906 226.292 17.0542 226.32 17.12C226.32 17.1669 226.334 17.2 226.345 17.2275C226.353 17.2469 226.36 17.2634 226.36 17.28C226.6 17.88 226.8 18.44 227 19.04V19.08C227.04 19.2 227.08 19.33 227.12 19.46C227.16 19.59 227.2 19.72 227.24 19.84C227.24 19.96 227.28 20.08 227.32 20.2C227.355 20.321 227.382 20.4346 227.408 20.5439C227.442 20.6875 227.475 20.8237 227.52 20.96C227.54 21.02 227.55 21.08 227.56 21.14C227.57 21.2 227.58 21.26 227.6 21.32C227.72 21.88 227.84 22.44 227.92 23ZM179.04 27.4C179.04 39.56 188.92 49.44 201.08 49.44C213.24 49.44 223.08 39.56 223.12 27.4C223.12 15.24 213.24 5.36 201.08 5.36C188.92 5.36 179.04 15.24 179.04 27.4Z"
    fill="#FFD17C" />
  <path
    d="M244.04 42.12C244.04 41.92 244 41.76 244 41.56C244 41.28 243.96 41 243.96 40.76C243.96 40.56 243.92 40.32 243.88 40.12C243.84 39.88 243.84 39.64 243.8 39.36C243.76 39.12 243.72 38.92 243.68 38.68C243.64 38.44 243.6 38.2 243.56 37.96C243.52 37.72 243.48 37.52 243.44 37.28C243.4 37.04 243.32 36.8 243.28 36.56C243.24 36.32 243.16 36.12 243.12 35.88C243.04 35.64 243 35.4 242.92 35.16C242.84 34.96 242.8 34.72 242.72 34.52C242.64 34.28 242.56 34 242.48 33.76C242.4 33.56 242.36 33.36 242.28 33.16C241.96 32.24 241.56 31.32 241.12 30.4C237.88 23.56 232.36 18.24 225.44 15.24C226.64 17.64 227.48 20.24 227.92 22.96C228.08 23.88 228.2 24.8 228.24 25.72C230.76 27.84 232.76 30.44 234.2 33.4C234.24 33.48 234.28 33.56 234.32 33.64C235.8 36.76 236.52 40.08 236.52 43.4C236.52 44.52 236.44 45.6 236.28 46.72C236.2 47.16 236.12 47.6 236.04 48.04C235.92 48.64 235.76 49.2 235.6 49.76C235.48 50.2 235.32 50.64 235.16 51.08C235.08 51.28 235 51.48 234.92 51.68C234.44 52.92 233.84 54.12 233.12 55.2C232.72 55.8 232.32 56.4 231.88 56.96C230.48 58.8 228.8 60.4 226.92 61.72C226.08 62.28 225.24 62.84 224.32 63.28C223.4 63.76 222.48 64.16 221.52 64.52C220.56 64.88 219.56 65.16 218.56 65.36C218.04 65.48 217.52 65.56 217 65.64C215.88 65.8 214.72 65.88 213.56 65.88C210.76 65.88 207.96 65.4 205.32 64.4C202.92 63.52 200.72 62.28 198.76 60.72C198.32 60.4 197.92 60.04 197.52 59.68C196.4 58.68 195.4 57.52 194.48 56.32C193.72 55.32 193.04 54.2 192.48 53.08C192.36 52.84 192.24 52.64 192.12 52.4V52.36C192 52.12 191.88 51.84 191.76 51.6C191.24 50.36 190.8 49.08 190.48 47.76C190.36 47.32 190.28 46.88 190.24 46.44C190.24 46.32 190.2 46.24 190.16 46.12C189.56 42.36 189.92 38.48 191.24 34.88V34.88C191.4 34.48 191.56 34.08 191.72 33.72C191.8 33.56 191.88 33.36 191.96 33.2C192.04 33.04 192.12 32.88 192.2 32.76C192.44 32.28 192.68 31.84 192.96 31.36C196.4 25.48 202.4 21.36 209.4 20.32C210.52 20.16 211.68 20.08 212.84 20.08C215.64 20.08 218.44 20.56 221.08 21.56C221.56 21.72 222 21.92 222.48 22.12C221.64 18.68 220.04 15.56 217.8 12.96C216.16 12.68 214.52 12.56 212.84 12.56C211.32 12.56 209.8 12.68 208.28 12.88C202.48 13.76 197.2 16.2 192.96 19.84V19.84C192.84 19.96 192.68 20.08 192.56 20.2C192.28 20.44 192 20.68 191.76 20.92C191.56 21.12 191.36 21.32 191.16 21.52C190.92 21.76 190.64 22.04 190.4 22.32C190.2 22.52 190 22.76 189.8 22.96C189.56 23.24 189.32 23.48 189.12 23.76C188.92 24 188.76 24.24 188.56 24.48C188.36 24.76 188.12 25.04 187.92 25.32C187.72 25.6 187.56 25.88 187.36 26.12C187.2 26.4 187 26.64 186.84 26.92C186.64 27.24 186.48 27.56 186.28 27.88C186.12 28.12 186 28.4 185.84 28.64C185.64 29 185.48 29.4 185.28 29.8C185.16 30 185.08 30.24 184.96 30.44C184.68 31.04 184.44 31.68 184.2 32.28C183.96 32.88 183.76 33.48 183.6 34.12C183.12 35.8 182.76 37.52 182.56 39.24C182.52 39.4 182.52 39.6 182.48 39.76C182.44 40.2 182.4 40.68 182.4 41.12C182.36 41.56 182.36 42.04 182.36 42.48C182.36 42.48 182.36 42.48 182.36 42.52C182.36 43.44 182.4 44.36 182.48 45.24C182.56 45.96 182.64 46.64 182.76 47.32C183.12 49.52 183.72 51.64 184.52 53.68C185.32 55.68 186.32 57.6 187.52 59.4C187.92 60 188.36 60.6 188.8 61.16C189.24 61.72 189.72 62.28 190.2 62.84C190.92 63.64 191.68 64.4 192.48 65.16C193 65.64 193.56 66.12 194.12 66.56C194.68 67 195.28 67.44 195.88 67.84C196.2 68.04 196.48 68.24 196.8 68.44C197.4 68.84 198.04 69.2 198.68 69.56C199 69.72 199.32 69.92 199.68 70.08C200.68 70.56 201.68 71 202.76 71.4C203.76 71.76 204.8 72.08 205.84 72.36C206.48 72.52 207.12 72.68 207.76 72.8C207.96 72.84 208.16 72.88 208.36 72.92C209.12 73.04 209.88 73.16 210.68 73.24C211.64 73.32 212.64 73.4 213.6 73.4V73.4C214.76 73.4 215.88 73.32 217.04 73.2C217.4 73.16 217.8 73.12 218.16 73.04C219.56 72.84 220.88 72.52 222.2 72.16C228.12 70.44 233.32 67 237.2 62.36C237.64 61.84 238.04 61.32 238.44 60.76C239.24 59.68 239.96 58.52 240.56 57.32C241.16 56.12 241.76 54.88 242.24 53.6C242.4 53.16 242.56 52.72 242.68 52.24C242.72 52.08 242.76 51.92 242.8 51.8C242.88 51.48 242.96 51.2 243.08 50.88C243.12 50.72 243.16 50.52 243.2 50.36C243.28 50.08 243.32 49.8 243.4 49.52C243.44 49.32 243.48 49.12 243.52 48.96C243.56 48.68 243.64 48.4 243.68 48.16C243.72 47.96 243.76 47.76 243.76 47.56C243.8 47.28 243.84 47 243.88 46.76C243.92 46.56 243.92 46.36 243.96 46.16C244 45.88 244 45.6 244.04 45.32C244.04 45.12 244.08 44.96 244.08 44.76C244.08 44.4 244.12 44.08 244.12 43.72C244.12 43.6 244.12 43.48 244.12 43.36C244.04 43.04 244.04 42.56 244.04 42.12Z"
    fill="url(#paint0_linear_0_34582)" />
  <path
    d="M230.04 19.36C236.24 24.64 240.16 32.52 240.16 41.32C240.16 57.28 227.24 70.2 211.28 70.2C205.48 70.2 200.04 68.48 195.52 65.52C200.56 69.84 207.12 72.48 214.32 72.48C230.28 72.48 243.2 59.56 243.2 43.6C243.16 33.44 237.92 24.52 230.04 19.36Z"
    fill="url(#paint1_linear_0_34582)" />
  <path
    d="M442.56 20.48L420.08 54.88H418.56L395.92 20.48V72.68H391.4V13.96C393.6 13.96 394.6 13.96 396.76 13.96L419.24 48.2L441.48 13.96H447V72.68H442.56V20.48Z"
    fill="#00725F" />
  <path fill-rule="evenodd" clip-rule="evenodd"
    d="M0 14.1211H5.444L28.242 48.8291L50.785 14.1211H56.399V73.6691H51.891V20.7571L29.093 55.6351H27.562L4.594 20.7571V73.6691H0V14.1211Z"
    fill="#009E7E" />
  <mask id="mask0_0_34582" style="mask-type:alpha" maskUnits="userSpaceOnUse" x="70" y="31" width="41" height="63">
    <path fill-rule="evenodd" clip-rule="evenodd" d="M70.9509 31.6452H110.082V94H70.9509V31.6452Z" fill="white" />
  </mask>
  <g mask="url(#mask0_0_34582)">
    <path fill-rule="evenodd" clip-rule="evenodd"
      d="M87.7939 73.1582L70.9509 31.6452H75.4589L85.2419 56.4852L90.1759 68.6502L95.0249 56.4002L105.573 31.6452H110.082L83.3709 94.0002H78.9469L87.7939 73.1582Z"
      fill="#009E7E" />
  </g>
  <defs>
    <linearGradient id="paint0_linear_0_34582" x1="256.908" y1="47.1722" x2="218.083" y2="-0.5066"
      gradientUnits="userSpaceOnUse">
      <stop offset="0.00143812" stop-color="#009F7F" />
      <stop offset="0.4667" stop-color="#007D66" />
      <stop offset="0.9746" stop-color="#005447" />
    </linearGradient>
    <linearGradient id="paint1_linear_0_34582" x1="198.613" y1="60.8865" x2="236.003" y2="71.8507"
      gradientUnits="userSpaceOnUse">
      <stop stop-color="#009F7F" />
      <stop offset="0.206" stop-color="#06A081" />
      <stop offset="0.4793" stop-color="#17A388" />
      <stop offset="0.789" stop-color="#32A892" />
      <stop offset="1" stop-color="#49AC9B" />
    </linearGradient>
  </defs>
</svg>